# xmcd CD database file
#
# Track frame offsets:
#	150
#	15822
#	31497
#	47175
#	65392
#	82162
#
# Disc length: 1298 seconds
#
# Revision: 0
# Processed by: cddbd v1.5.1PL0 Copyright (c) Steve Scherf et al.
# Submitted via: CDex 1.51
#
DISCID=43051006
DTITLE=Kenny Chesney - I Will Stand
DYEAR=1998
DGENRE=Country
TTITLE0=I Will Stand
TTITLE1=I Will Stand
TTITLE2=I Will Stand
TTITLE3=That's Why I'm Here
TTITLE4=A Chance
TTITLE5=She's Got It All
EXTD=YEAR: 1998
EXTT0=
EXTT1=
EXTT2=
EXTT3=
EXTT4=
EXTT5=
PLAYORDER=
